<?xml version="1.0" encoding="UTF-8" standalone="no"?>
<svg
   xmlns:dc="http://purl.org/dc/elements/1.1/"
   xmlns:cc="http://creativecommons.org/ns#"
   xmlns:rdf="http://www.w3.org/1999/02/22-rdf-syntax-ns#"
   xmlns:svg="http://www.w3.org/2000/svg"
   xmlns="http://www.w3.org/2000/svg"
   xmlns:sodipodi="http://sodipodi.sourceforge.net/DTD/sodipodi-0.dtd"
   xmlns:inkscape="http://www.inkscape.org/namespaces/inkscape"
   height="1024"
   width="1024"
   version="1.1"
   id="svg4"
   sodipodi:docname="globe.svg"
   inkscape:version="0.92.0 r15299">
  <metadata
     id="metadata10">
    <rdf:RDF>
      <cc:Work
         rdf:about="">
        <dc:format>image/svg+xml</dc:format>
        <dc:type
           rdf:resource="http://purl.org/dc/dcmitype/StillImage" />
      </cc:Work>
    </rdf:RDF>
  </metadata>
  <defs
     id="defs8" />
  <sodipodi:namedview
     pagecolor="#ffffff"
     bordercolor="#666666"
     borderopacity="1"
     objecttolerance="10"
     gridtolerance="10"
     guidetolerance="10"
     inkscape:pageopacity="0"
     inkscape:pageshadow="2"
     inkscape:window-width="1920"
     inkscape:window-height="1017"
     id="namedview6"
     showgrid="false"
     inkscape:zoom="0.23046875"
     inkscape:cx="512"
     inkscape:cy="512"
     inkscape:window-x="-8"
     inkscape:window-y="-8"
     inkscape:window-maximized="1"
     inkscape:current-layer="svg4" />
  <path
     d="M 512,6.5084746 C 232.82519,6.5084746 6.5084746,232.82519 6.5084746,512 c 0,279.17481 226.3167154,505.4915 505.4915254,505.4915 34.16412,0 67.53446,-3.3989 99.79772,-9.8597 -13.00456,-6.2199 -14.42362,-52.88441 -1.56387,-79.48985 14.31568,-29.61864 59.23729,-104.65254 14.80933,-129.82839 -44.42797,-25.17585 -32.08687,-36.52966 -59.23729,-65.65466 -27.15043,-29.125 -16.04673,-33.5033 -17.77119,-40.97246 -5.92373,-25.66949 26.16314,-64.17373 27.64407,-68.12288 1.48093,-3.94915 1.48093,-18.75848 0.98729,-23.20127 -0.49365,-4.4428 -20.23809,-16.29026 -25.17453,-16.7839 -4.93645,-0.49364 -7.40467,7.8983 -14.31568,8.39195 -6.91102,0.49364 -37.02331,-18.26483 -43.44068,-23.20127 -6.41737,-4.93644 -9.37924,-16.7839 -18.26483,-25.66949 -8.88559,-8.8856 -9.87288,-1.97458 -23.69492,-7.40466 -13.82203,-5.43009 -58.25,-21.72034 -92.31144,-35.54238 -34.06144,-13.82203 -37.0233,-33.19789 -37.51695,-46.89618 -0.49364,-13.6983 -20.73305,-33.5678 -30.22549,-47.88348 -9.48982,-14.31568 -11.24061,-34.06144 -14.69612,-29.61864 -3.4555,4.44279 17.77119,56.27542 14.31568,57.75635 -3.45551,1.48094 -10.86017,-14.31567 -20.73305,-27.15042 -9.87288,-12.83475 10.36653,-5.92373 -21.22669,-68.12288 -31.59322,-62.19915 9.87288,-93.91611 11.84745,-126.37288 1.97458,-32.45677 26.65678,11.84745 13.82204,-8.8856 -12.83475,-20.73305 0.98729,-64.17373 -8.8856,-79.97034 -9.87288,-15.79661 -66.1483,17.77119 -66.1483,17.77119 1.48093,-15.30297 49.36441,-41.466101 83.91949,-65.65466 34.55509,-24.188559 55.65804,-5.430085 83.42585,3.455508 27.76781,8.885594 29.61864,5.923729 20.2394,-2.961864 -9.37923,-8.885593 3.94916,-13.32839 25.6695,-9.872881 21.72034,3.455508 27.64406,29.618644 60.71822,27.150423 33.07415,-2.46822 3.45551,6.417373 7.8983,14.809324 4.4428,8.39195 -4.93644,7.40466 -26.65678,22.21398 -21.72034,14.80932 0.49365,14.80932 38.99788,42.94704 38.50424,28.13771 26.65678,-18.75848 22.70763,-39.49153 -3.94915,-20.73305 28.13771,-4.4428 28.13771,-4.4428 23.69492,15.79661 19.31662,0.86882 36.59417,6.2989 17.27754,5.43009 64.10922,45.04009 64.10922,45.04009 -58.74364,32.08686 -21.72034,35.54237 -11.84746,42.94703 9.87289,7.40466 -20.2394,21.72034 -20.2394,21.72034 -12.3411,-12.3411 -14.31568,0.49364 -22.21399,4.93644 -7.8983,4.4428 -0.49364,15.79661 -0.49364,15.79661 -40.84872,6.41737 -31.59322,49.36441 -31.09958,59.73093 0.49365,10.36653 -26.16313,26.16314 -33.07415,40.97246 -6.91101,14.80932 17.77119,46.89619 4.93644,48.87076 -12.83474,1.97458 -25.66949,-48.37712 -94.77966,-29.61864 -20.83573,5.6565 -67.13559,29.61864 -42.45339,78.48941 24.68221,48.87076 65.65466,-13.82204 79.4767,-6.91102 13.82203,6.91102 -3.94916,38.01059 -0.98729,38.50424 2.96186,0.49364 38.99788,1.35719 40.97246,43.44067 1.97457,42.08349 54.79449,38.50424 66.1483,39.49153 11.35381,0.98729 49.36441,-31.09958 54.79449,-32.58051 5.43009,-1.48093 27.15043,-19.74576 74.54026,7.40466 47.38983,27.15043 71.57839,23.20127 87.86864,34.55509 16.29026,11.35381 4.93644,34.06144 20.23941,41.4661 15.30296,7.40466 76.51483,-2.46822 91.81779,22.70763 15.30297,25.17584 -63.18644,151.54872 -87.86864,165.37076 -24.6822,13.82203 -36.03602,45.41525 -60.71822,65.65466 -24.6822,20.23941 -59.23729,45.29151 -91.8178,64.66737 -28.83934,17.14854 -34.02853,47.87031 -46.87512,57.56809 C 848.33089,955.20023 1017.4915,753.35904 1017.4915,512 1017.4915,232.82519 791.17481,6.5084746 512,6.5084746 Z M 630.47458,480.90042 c -6.91102,1.97458 -21.2267,14.80933 -56.27543,-5.92373 C 539.15042,454.24364 514.96186,458.1928 512,454.73729 c 0,0 -2.96186,-8.39195 12.3411,-9.87288 31.42341,-3.04217 71.08475,29.125 79.97034,29.61864 8.88559,0.49364 13.32839,-8.88559 29.125,-3.79513 15.79661,5.08519 3.94915,8.23793 -2.96186,10.2125 z M 465.10381,56.860169 c -3.44234,-2.503762 2.85129,-5.386644 6.60299,-10.366525 2.16545,-2.877616 0.55946,-7.654774 3.26989,-10.366525 7.40467,-7.404661 43.93433,-17.771187 36.79163,2.46822 -7.14007,20.239407 -41.23442,22.213983 -46.66451,18.26483 z M 553.4661,121.0339 c -12.3411,-0.49365 -41.39107,-3.56345 -36.03602,-8.88559 20.8568,-20.733056 -7.8983,-26.656785 -25.66949,-28.137717 -17.77118,-1.480932 -25.17584,-11.353813 -16.29025,-12.341101 8.88559,-0.987289 44.42797,0.493644 50.35169,5.430084 5.92373,4.936441 38.0106,17.771187 39.98517,27.150424 1.97458,9.37924 0,17.27754 -12.3411,16.7839 z m 107.12076,-3.45551 c -9.87288,7.8983 -59.55322,-28.340435 -69.11017,-36.529661 -41.4661,-35.542373 -63.68008,-23.694915 -72.38796,-29.618644 -8.71052,-5.923729 -5.6078,-13.822034 7.72059,-25.669492 13.32839,-11.847457 50.84534,3.949153 72.56568,6.417373 21.72034,2.46822 46.89619,19.252119 47.38983,39.203237 0.49364,19.949803 23.69492,38.298877 13.82203,46.197187 z"
     id="path2"
     inkscape:connector-curvature="0"
     style="stroke-width:1.3163842;fill:#f2f2f2;fill-opacity:1" />
</svg>
